<svg width="100" height="100" viewBox="0 0 8 8" xmlns="http://www.w3.org/2000/svg" aria-hidden="true" class="iconify iconify--emojione"><path d="M6 0.825C5.412 0.463 4.737 0.25 4 0.25v0.575z" fill="#ed4c5c"/><path d="M4 1.4h2.7C6.487 1.188 6.25 0.988 6 0.825H4z" fill="#fff"/><path d="M4 1.975h3.163c-0.138 -0.212 -0.287 -0.4 -0.45 -0.575H4z" fill="#ed4c5c"/><path d="M4 2.55h3.462c-0.087 -0.2 -0.188 -0.4 -0.3 -0.575H4z" fill="#fff"/><path d="M4 3.125h3.65c-0.05 -0.2 -0.113 -0.388 -0.188 -0.575H4z" fill="#ed4c5c"/><path d="M4 3.712h3.737c-0.013 -0.2 -0.05 -0.388 -0.087 -0.575H4z" fill="#fff"/><path d="M7.737 3.712H4V4H0.25c0 0.1 0 0.188 0.013 0.287h7.475c0.013 -0.1 0.013 -0.188 0.013 -0.287s0 -0.2 -0.013 -0.287" fill="#ed4c5c"/><path d="M0.35 4.862h7.3c0.05 -0.188 0.075 -0.375 0.087 -0.575H0.263c0.013 0.188 0.037 0.388 0.087 0.575" fill="#fff"/><path d="M0.537 5.438h6.925c0.075 -0.188 0.138 -0.375 0.188 -0.575H0.35c0.05 0.2 0.113 0.388 0.188 0.575" fill="#ed4c5c"/><path d="M0.838 6.013h6.325c0.113 -0.188 0.212 -0.375 0.3 -0.575H0.537c0.087 0.2 0.188 0.388 0.3 0.575" fill="#fff"/><path d="M1.288 6.588h5.425c0.163 -0.175 0.325 -0.375 0.45 -0.575H0.838c0.125 0.212 0.287 0.4 0.45 0.575" fill="#ed4c5c"/><path d="M1.988 7.162h4.025c0.263 -0.163 0.487 -0.362 0.7 -0.575H1.288c0.212 0.225 0.45 0.412 0.7 0.575" fill="#fff"/><path d="M4 7.75c0.738 0 1.425 -0.212 2.013 -0.588H1.988c0.588 0.375 1.275 0.588 2.013 0.588" fill="#ed4c5c"/><path d="M2 0.825c-0.263 0.163 -0.5 0.362 -0.713 0.575 -0.175 0.175 -0.325 0.375 -0.45 0.575 -0.113 0.188 -0.225 0.375 -0.3 0.575 -0.075 0.188 -0.138 0.375 -0.188 0.575 -0.05 0.188 -0.075 0.375 -0.087 0.575 -0.013 0.1 -0.013 0.2 -0.013 0.3h3.75V0.25c-0.738 0 -1.413 0.212 -2 0.575" fill="#428bc1"/><path d="m3.125 0.375 0.063 0.188H3.375l-0.15 0.125 0.05 0.188 -0.15 -0.113 -0.15 0.113 0.05 -0.188 -0.15 -0.125h0.188zm0.5 0.75 0.063 0.188H3.875l-0.15 0.125 0.05 0.188 -0.15 -0.113 -0.15 0.113 0.05 -0.188 -0.15 -0.125h0.188zm-1 0 0.063 0.188H2.875l-0.15 0.125 0.05 0.188 -0.15 -0.113 -0.15 0.113 0.05 -0.188 -0.15 -0.125h0.188zm0.5 0.75 0.063 0.188H3.375l-0.15 0.125 0.05 0.188 -0.15 -0.113 -0.15 0.113 0.05 -0.188 -0.15 -0.125h0.188zm-1 0 0.063 0.188H2.375l-0.15 0.125 0.05 0.188 -0.15 -0.113 -0.15 0.113 0.05 -0.188 -0.15 -0.125h0.188zm-1 0 0.063 0.188H1.375l-0.15 0.125 0.05 0.188 -0.15 -0.113 -0.15 0.113 0.05 -0.188 -0.15 -0.125h0.188zm2.5 0.75 0.063 0.188H3.875l-0.15 0.125 0.05 0.188 -0.15 -0.113 -0.15 0.113 0.05 -0.188 -0.15 -0.125h0.188zm-1 0 0.063 0.188H2.875l-0.15 0.125 0.05 0.188 -0.15 -0.113 -0.15 0.113 0.05 -0.188 -0.15 -0.125h0.188zm-1 0 0.063 0.188H1.875l-0.15 0.125 0.05 0.188 -0.15 -0.113 -0.15 0.113 0.05 -0.188 -0.15 -0.125h0.188zm1.5 0.75 0.063 0.188H3.375l-0.15 0.125 0.05 0.188 -0.15 -0.113 -0.15 0.113 0.05 -0.188 -0.15 -0.125h0.188zm-1 0 0.063 0.188H2.375l-0.15 0.125 0.05 0.188 -0.15 -0.113 -0.15 0.113 0.05 -0.188 -0.15 -0.125h0.188zm-1 0 0.063 0.188H1.375l-0.15 0.125 0.05 0.188 -0.15 -0.113 -0.15 0.113 0.05 -0.188 -0.15 -0.125h0.188zm0.35 -1.75 0.15 -0.113 0.15 0.113 -0.063 -0.188 0.15 -0.125h-0.188L1.625 1.125l-0.063 0.188h-0.175l0.15 0.113zm-1 1.5 0.15 -0.113 0.15 0.113 -0.063 -0.188 0.15 -0.125H0.688L0.625 2.625l-0.063 0.188h-0.125c0 0.013 -0.013 0.025 -0.013 0.037l0.1 0.075z" fill="#fff"/></svg>