<svg fill="#000000" xmlns="http://www.w3.org/2000/svg" width="100px" height="100px" viewBox="0 0 6.5 6.5" enable-background="new 0 0 52 52" xml:space="preserve"><path d="M3.75 3.625h2.063c0.1 0 0.188 -0.087 0.188 -0.188v-0.375c0 -0.1 -0.087 -0.188 -0.188 -0.188H3.75c-0.075 0 -0.125 -0.05 -0.125 -0.125V0.688c0 -0.1 -0.087 -0.188 -0.188 -0.188h-0.375c-0.1 0 -0.188 0.087 -0.188 0.188V2.75c0 0.075 -0.05 0.125 -0.125 0.125H0.688c-0.1 0 -0.188 0.087 -0.188 0.188v0.375c0 0.1 0.087 0.188 0.188 0.188H2.75c0.075 0 0.125 0.05 0.125 0.125v2.063c0 0.1 0.087 0.188 0.188 0.188h0.375c0.1 0 0.188 -0.087 0.188 -0.188V3.75c0 -0.075 0.05 -0.125 0.125 -0.125"/></svg>