<svg fill="#000000" width="100px" height="100px" viewBox="0 0 3 3" xmlns="http://www.w3.org/2000/svg"><path fill-rule="evenodd" d="M2.625 2a0.125 0.125 0 0 1 0.124 0.11L2.75 2.125v0.25a0.375 0.375 0 0 1 -0.353 0.374L2.375 2.75H0.625a0.375 0.375 0 0 1 -0.374 -0.353L0.25 2.375v-0.25a0.125 0.125 0 0 1 0.249 -0.015L0.5 2.125v0.25a0.125 0.125 0 0 0 0.11 0.124L0.625 2.5h1.75a0.125 0.125 0 0 0 0.124 -0.11L2.5 2.375v-0.25a0.125 0.125 0 0 1 0.125 -0.125M1.5 0.25a0.125 0.125 0 0 1 0.125 0.125v1.198l0.162 -0.162a0.125 0.125 0 0 1 0.165 -0.01l0.012 0.01a0.125 0.125 0 0 1 0.01 0.165l-0.01 0.012 -0.375 0.375 -0.005 0.005 -0.009 0.007 -0.014 0.009 -0.014 0.007 -0.013 0.004 -0.019 0.004L1.5 2l-0.009 0 -0.016 -0.002 -0.014 -0.004 -0.014 -0.005 -0.012 -0.006 -0.012 -0.008a0.125 0.125 0 0 1 -0.011 -0.01l-0.375 -0.375a0.125 0.125 0 0 1 0.165 -0.187l0.012 0.01L1.375 1.573V0.375a0.125 0.125 0 0 1 0.125 -0.125"/></svg>