<svg width="100px" height="100px" viewBox="0 0 3 3" fill="none" xmlns="http://www.w3.org/2000/svg"><path fill-rule="evenodd" clip-rule="evenodd" d="M0.625 1.875a0.094 0.094 0 0 1 0.094 0.094V2.25c0 0.017 0.014 0.031 0.031 0.031h1.5a0.031 0.031 0 0 0 0.031 -0.031v-0.282a0.094 0.094 0 0 1 0.188 0V2.25A0.219 0.219 0 0 1 2.25 2.469H0.75A0.219 0.219 0 0 1 0.531 2.25v-0.282a0.094 0.094 0 0 1 0.094 -0.094" fill="#000000"/><path fill-rule="evenodd" clip-rule="evenodd" d="M1.525 0.698a0.094 0.094 0 0 1 0.094 0.094v1.011a0.094 0.094 0 0 1 -0.188 0V0.791a0.094 0.094 0 0 1 0.094 -0.094" fill="#000000"/><path fill-rule="evenodd" clip-rule="evenodd" d="M1.46 0.558a0.094 0.094 0 0 1 0.131 0L2.009 0.966a0.094 0.094 0 0 1 -0.131 0.134l-0.352 -0.344 -0.352 0.344A0.094 0.094 0 1 1 1.042 0.966z" fill="#000000"/></svg>